{"title":"The Paper Chase(1973)MPEG-4[DaScubaDude]","uid":15331893,"size":1123681273,"categoryP":"video","categoryS":"movies","magnet":"?xt=urn:btih:9283a9fead5e651008a3d1e7fbddb02f8d4a59d4&amp;dn=The+Paper+Chase%281973%29MPEG-4%5BDaScubaDude%5D&amp;tr=udp%3A%2F%2Ftracker.leechers-paradise.org%3A6969&amp;tr=udp%3A%2F%2Fzer0day.ch%3A1337&amp;tr=udp%3A%2F%2Fopen.demonii.com%3A1337&amp;tr=udp%3A%2F%2Ftracker.coppersurfer.tk%3A6969&amp;tr=udp%3A%2F%2Fexodus.desync.com%3A6969","seeders":3,"leechers":2,"uploader":"dascuba","files":1,"time":1468743014,"description":"The Paper Chase (1973)\r\nPG | 1h 53min | Comedy, Drama | 16 October 1973 (USA)\r\nA first-year law student at Harvard Law School struggles with balancing his coursework and his relationship with the daughter of his sternest professor.\r\nDirector: James Bridges\r\nWriters: John Jay Osborn Jr. (novel), James Bridges (screenplay)\r\nStars: Timothy Bottoms, Lindsay Wagner, John Houseman |\r\n\r\nGeneral\r\nComplete name                            : The Paper ChasePAPERCHASE_Title1.mp4\r\nFormat                                   : MPEG-4\r\nFormat profile                           : Base Media\r\nCodec ID                                 : isom (isom/iso2/avc1/mp41)\r\nFile size                                : 1.05 GiB\r\nDuration                                 : 1h 51mn\r\nOverall bit rate                         : 1 349 Kbps\r\nMovie name                               : PAPERCHASE\r\nGenre                                    : Drama\r\nWriting application                      : Lavf54.6.100\r\n\r\nVideo\r\nID                                       : 1\r\nFormat                                   : AVC\r\nFormat/Info                              : Advanced Video Codec\r\nFormat profile                           :   \r\nFormat settings, CABAC                   : No\r\nFormat settings, ReFrames                : 6 frames\r\nCodec ID                                 : avc1\r\nCodec ID/Info                            : Advanced Video Coding\r\nDuration                                 : 1h 51mn\r\nBit rate                                 : 1 214 Kbps\r\nWidth                                    : 720 pixels\r\nHeight                                   : 404 pixels\r\nDisplay aspect ratio                     : 16:9\r\nFrame rate mode                          : Constant\r\nFrame rate                               : 29.970 (30000/1001) fps\r\nColor space                              : YUV\r\nChroma subsampling                       : 4:2:0\r\nBit depth                                : 8 bits\r\nScan type                                : Progressive\r\nBits/(Pixel*Frame)                       : 0.139\r\nStream size                              : 965 MiB (90%)\r\n\r\nAudio\r\nID                                       : 2\r\nFormat                                   : AAC\r\nFormat/Info                              : Advanced Audio Codec\r\nFormat profile                           : LC\r\nCodec ID                                 : 40\r\nDuration                                 : 1h 51mn\r\nBit rate mode                            : Constant\r\nBit rate                                 : 128 Kbps\r\nChannel(s)                               : 2 channels\r\nChannel positions                        : Front: L R\r\nSampling rate                            : 44.1 KHz\r\nFrame rate                               : 43.066 fps (1024 spf)\r\nCompression mode                         : Lossy\r\nStream size                              : 102 MiB (9%)\r\nDefault                                  : Yes\r\nAlternate group                          : 1","torrent":{"xt":"urn:btih:9283a9fead5e651008a3d1e7fbddb02f8d4a59d4","amp;dn":"The+Paper+Chase%281973%29MPEG-4%5BDaScubaDude%5D","amp;tr":["udp%3A%2F%2Ftracker.leechers-paradise.org%3A6969","udp%3A%2F%2Fzer0day.ch%3A1337","udp%3A%2F%2Fopen.demonii.com%3A1337","udp%3A%2F%2Ftracker.coppersurfer.tk%3A6969","udp%3A%2F%2Fexodus.desync.com%3A6969"],"infoHash":"9283a9fead5e651008a3d1e7fbddb02f8d4a59d4","infoHashBuffer":{"type":"Buffer","data":[146,131,169,254,173,94,101,16,8,163,209,231,251,221,176,47,141,74,89,212]},"announce":[],"urlList":[]}}